<svg xmlns="http://www.w3.org/2000/svg" width="137.13" height="137.13">
  <defs>
    <clipPath id="h">
      <path d="M11.22 45.37h148.23v104.8H11.22Z" />
    </clipPath>
    <clipPath id="i">
      <path d="M62.3 93.6h45.93v34.77H62.3Z" />
    </clipPath>
    <clipPath id="k">
      <path d="M68.84 64.76h33.57v22.01H68.84Z" />
    </clipPath>
    <linearGradient id="j" x1="63.22" x2="109.11" y1="94.07" y2="129.28"
      gradientUnits="userSpaceOnUse">
      <stop offset="0" stop-color="#fff" />
      <stop offset="1" stop-color="#231f20" />
    </linearGradient>
    <linearGradient id="l" x1="102.76" x2="73.89" y1="87.98" y2="66.5"
      gradientUnits="userSpaceOnUse">
      <stop offset="0" stop-color="#fff" />
      <stop offset="1" stop-color="#231f20" />
    </linearGradient>
  </defs>
  <path fill="#c68526"
    d="M111.8 17.92c11 0 10.1 11.3 10.1 18.9v33.7c0 18.1 1.8 37.1 0 55.1 0 11.4-12.1 10.1-19.9 10.1H32.9c-7.4 0-16.9-.1-16.9-10.4v-50.1c0-15.4-1.5-31.8 0-47.2 0-10.1 9.7-10.1 16.9-10.1h78.9" />
  <path fill="url(#a)"
    d="M26.1 134.82c-10.6 0-9.2-11.8-9.2-18.9v-71.4c0-5.8-1.1-12.8.2-18.6 2.2-9.1 13.9-7 20.9-7h68.7c7.2 0 14.2 1.3 14.2 10.4v83.5c0 4.7.9 10.4-.2 15-1.9 8.1-10.3 7.1-16.6 7.1H74.5l-48.4-.1m85.7-117.8H27.4c-8.9 0-12.4 6.3-12.4 14.2v92.8c0 8.7 6 12.7 14 12.7h60.5c13 0 33.3 4.2 33.3-14.3v-88.3c.1-7.6-.7-17.1-11-17.1" />
  <path fill="#ffb600"
    d="M18.4 30.52v87c0 8.8 2.3 15.8 13 15.4-10.9 0-9.8-11.6-9.8-19v-73.1c0-7.6-1.5-20 9.8-20-6.3-.3-13 2.3-13 9.7" />
  <path fill="#ffb600"
    d="M109.6 19.62h-77c-8.6 0-14.7 3.1-14.3 13 0-10.5 10.6-9.8 17.9-9.8h64.4c7.4 0 18.9-1.1 18.9 9.8.2-6.3-2.4-13-9.9-13" />
  <path fill="#ffb600"
    d="M119.5 123.12v-87c0-8.8-2.3-15.8-13-15.4 10.9 0 9.8 11.6 9.8 19v73.1c0 7.6 1.5 20-9.8 20 6.3.3 13-2.2 13-9.7" />
  <path fill="url(#b)"
    d="M69.8 72.92c-24.1 0-35.8 22.4-42 43-2.3 7.6-3 10.6 5.7 12.9 17.4 4.6 36.9 4.3 54.6 2.9 4.4-.3 27.3-.8 27.4-8 .1-5.5-.3-11.1-1.5-16.5-4.8-22-21.9-34.3-44.2-34.3" />
  <path fill="#fff"
    d="M110.9 74.62c0-9.2.6-18.5 1.4-27.7.4-4.7 2.5-11.9.6-16.5-2.8-6.8-17.1-4.4-22.8-4.4H52.5c-6.6 0-20.5-2.2-24.7 4.5-2.2 3.5-.2 9.8.1 13.5.9 11.3 1.4 22.6 1.1 33.9-.2 9.9-.9 19.8-1.8 29.7-.5 5.7-2.2 11.9 3.6 15.6 6.8 4.3 20.7 2.6 28.3 3.1l17.2 1.2c2.5.2 5.9 1 8.4.2 9.7-3 20.7-12.9 26.8-20.8 2.1-2.7 1.7-3.9 1.2-7.1-1.3-8.3-1.8-16.8-1.8-25.2" />
  <path fill="url(#c)"
    d="M83.5 128.72c4.3 0 9.4-4.6 12.6-6.9 5.6-4 11.3-8.6 15.6-14 2.7-3.3 2.4-4.8 1.8-8.7-1.5-9.6-2-19.3-1.7-29 .2-9 .8-18 1.6-26.9.4-4.8 2.5-12.1-1.7-15.8-5-4.5-18.4-2.3-24.4-2.3H49.9c-7.2 0-23.9-2.2-23.9 8.8 2.2 16.3 2.6 33 2 49.4-.3 9.1-1 18.2-1.9 27.3-.6 6.5.2 13.2 8.1 14.8 15.8 3 33.2 2.2 49.3 3.3M38 26.72h59.2c8 0 16.1-.4 15.1 10.2-1.8 18.6-3.3 37.4-1.3 55.9.3 2.8 2.6 8.8 1.3 11.6-2.5 5.2-8.5 9.5-12.9 13.1-7.9 6.4-13 9.9-22.9 9.3l-35.1-2.4c-3.5-.2-7.7 0-10.6-2.2-5.2-3.9-2.9-11-2.5-16.5 1.6-17.6 2.1-35.3 1.1-52.9-.6-9.5-6.3-26.1 8.6-26.1" />
  <path fill="#f4f2f2"
    d="M105 74.12c0-8.9.6-17.9 1.3-26.8.3-4 2.3-10.9-.6-14.4-4.2-4.9-19.7-2.3-25.1-2.3H47.3c-3.3 0-6.8-.3-9.9 1.3-5.6 2.9-3.3 9.7-2.9 14.6 1.6 20 1.1 40.1-.6 60-1.1 13.1 9.9 12.4 19.8 13.1 4.2.3 24.2 4.7 25.2-.5 1.1-6.1.7-12.9 3.9-18.4 3.9-6.8 18.8-3.3 24.4-1.1-1.8-8.3-2.2-17-2.2-25.5" />
  <path fill="#bfbfbf"
    d="M82.2 127.32c12.4-1.2 23.8-14.1 31.3-22.8-7-2.4-19.2-6.7-26.1-2.3-6 3.8-4.9 18.9-5.2 25.1" />
  <path fill="#cfcfcf"
    d="M77.8 121.52c.1-6.6.1-16.7 5-21.7 5.2-5.3 18.1-1.7 24.3-.2-7-1.7-22-6.5-28.5-1.9-5.8 4.3-2.2 18.1-.8 23.8" />
  <path fill="url(#d)"
    d="M91.1 18.42c-1.8-.9-4.3-.8-6.3-1.3-4.1-1.2-3.3-3.7-4.1-7.3C79 2.22 69.9-.98 63 2.12c-6.8 3.1-3.4 12.6-8.9 14.7-6.9 2.7-14.7 5.5-16.1 14-1 6 7.5 5.1 11.4 5.1 10.6 0 21.2-.5 31.9-.2 5.3.2 14.7 2 19.5-1.1 6.4-4.2-6.7-14.7-9.7-16.2M69 13.72c-5.8 0-5.8-8.4 0-8.4s5.8 8.4 0 8.4" />
  <path fill="url(#e)"
    d="M59.7 3.22c-2.9 2.8-3.8 7-3.8 10.9 0 2.1-5.6 2.8-7.1 3.3-4.4 1.4-18.3 15-9.1 18.4 10.1 3.7 24.4.5 35.3.7 7.3.1 14.9 1 22.1.1 10.5-1.3 4.2-12.3-1.2-16.4-3.4-2.6-5.7-3-9.7-3.9-5.6-1.2-3.5-5.9-5.7-10.1-3.6-6.9-15.3-8.3-20.8-3m-20.5 30.2c-5-4.8 9.3-13.6 12.1-14.8 4.7-1.2 6.1-2.1 6.7-6.9.5-4 2.4-7.8 6.4-9.1 7.3-2.4 14.8 1.3 15.7 9.1 1 8.2 11.4 6.5 16.8 11.9 1.5 1.5 6.2 7.6 3.8 9.9-2.1 2-7.2 1.5-9.8 1.5-6.2 0-12.4-.3-18.6-.4-4-.1-8.1.1-12.1.1-5.1.1-17 2.5-21-1.3" />
  <path fill="url(#f)"
    d="M63.5 9.52c0 6.7 11 6.7 11 0s-11-6.7-11 0m1.9 0c0-4.2 7.2-4.2 7.2 0s-7.2 4.2-7.2 0" />
  <path fill="#eaeaea"
    d="M74 7.22c0-3.7-10.3-3-10.3.2 0-4.4 10.3-5.1 10.3-.2m24.7 26.8c0 .7-55.4.7-55.4 0s55.4-.8 55.4 0" />
  <path fill="url(#g)"
    d="M98.7 30.42c0 .7-56.8.7-56.8 0 0-6.7 18.9-9.7 22.7-10 8.5-.7 17.1.4 24.9 4 1.3.6 9.2 4.1 9.2 6" />
  <path fill="#f7f7f7"
    d="M93.3 25.02c0-3.7-18.6-5.6-20.5-5.6-2.1-.1-26.3.9-26.3 5 0-4.8 21.1-6.2 23.5-6.2 2.6 0 23.3 1.8 23.3 6.8" />
  <g clip-path="url(#h)">
    <path fill="#302c2d"
      d="M100.6 86.75h-.06.06m-38.17-.37h7.3a2.1 2.1 0 0 1-.89-1.72v-19.9h-1.9v.42h-5.4l-1 1.06h-.38l-.02 18.2c0 1.17 1.12 1.94 2.29 1.94m38.94.1-.1.05c.06 0 .12-.02.17-.03a2 2 0 0 0 .13-.08l-.2.06m1.02-1.49v-.07.07" />
    <path fill="#272324"
      d="M59.73 84.68a2.1 2.1 0 0 0 2.11 2.11h38.54a1.96 1.96 0 0 0 .39-.03l.08-.02a1.97 1.97 0 0 0 .2-.06l.06-.02.21-.1a.23.23 0 0 0 .12-.06.47.47 0 0 1-.17.03 2.3 2.3 0 0 1-.66.22h-.07c-.08.02-.16.02-.24.02H70.96a2.1 2.1 0 0 1-1.22-.39h-7.31c-1.17 0-2.3-.77-2.3-1.93l.03-18.2h-.41Z" />
    <path fill="#272324"
      d="m102.4 84.92-.02.07a1.98 1.98 0 0 1-.25.72l-.02.03-.13.2-.01.01c-.17.22-.37.4-.6.53l.2-.06a2 2 0 0 0 .19-.14l.03-.03.14-.14.03-.04.13-.15.02-.03.13-.21a2.04 2.04 0 0 0 .22-.68l.01-.07.02-.25-.07-18.41v-1.5 19.89l-.02.26" />
    <path fill="#393536"
      d="M115.33 125.66h-3.17v-2.58h3.17Zm-56.94 0h-3.17v-2.59h3.17Zm-1.68-56.67 1.37 3.23-.64-.12v1.88h-1.47V72.1l-.63.13Zm55.48-4.23h-2.52v.45h-5.41l-1 1.06h-.84l.07 18.41c0 .08 0 .17-.02.25V85a2.31 2.31 0 0 1-.11.4l-.02.07-.1.2v.01l-.13.2-.02.04-.13.15c0 .02-.02.03-.03.04l-.14.14-.03.03a1.97 1.97 0 0 1-.43.29l-.22.1-.05.01-.1.03-.11.03-.08.02a2.34 2.34 0 0 1-.4.03H61.85a2.11 2.11 0 0 1-2.11-2.1l.02-18.45h.08v-1.48h-3.9c-1.17 0-2.11.95-2.11 2.12v61.8c0 1.16.94 2.1 2.11 2.1h3.82v-37.5c0-1.16.94-2.1 2.11-2.1h46.81a2.1 2.1 0 0 1 2.11 2.1v37.5h3.96a2.1 2.1 0 0 0 2.1-2.1v-59Z" />
    <path fill="#a7a5a6" d="M113.74 125.56h.04a1.2 1.2 0 0 1 0-2.4h-.04a1.2 1.2 0 0 0 0 2.4" />
    <path fill="#302c2d"
      d="M97.16 67.76h-8.54v17.16h8.54Zm11.07 58.71a1.9 1.9 0 0 1-1.9 1.9H64.2a1.9 1.9 0 0 1-1.9-1.9V95.5c0-1.05.85-1.9 1.9-1.9h42.13c1.05 0 1.9.85 1.9 1.9Zm.44-35.3H61.86c-1.17 0-2.11.95-2.11 2.12v37.5h51.03v-37.5c0-1.17-.94-2.12-2.1-2.12m5.06 32h.04a1.2 1.2 0 0 1 0 2.4h-.04a1.2 1.2 0 0 1 0-2.4m-1.58 2.49h3.17v-2.58h-3.17ZM55.97 73.98h1.47V72.1l.64.13L56.7 69l-1.37 3.23.63-.13Z" />
    <path fill="#f4f4f4"
      d="M105.23 97.13H65.3v-.18h39.93Zm0 3.98H65.3v-.18h39.93Zm0 3.98H65.3v-.17h39.93Zm0 3.99H65.3v-.18h39.93Zm0 3.98H65.3v-.18h39.93Zm0 3.98H65.3v-.17h39.93Zm0 3.99H65.3v-.18h39.93Zm0 3.98H65.3v-.18h39.93Zm1.1-31.42H64.2a1.9 1.9 0 0 0-1.9 1.9v30.98c0 1.05.85 1.9 1.9 1.9h42.13a1.9 1.9 0 0 0 1.9-1.9V95.5a1.9 1.9 0 0 0-1.9-1.9" />
    <g clip-path="url(#i)" opacity=".15">
      <path fill="url(#j)"
        d="M105.23 97.13H65.3v-.18h39.93Zm0 3.98H65.3v-.18h39.93Zm0 3.98H65.3v-.17h39.93Zm0 3.99H65.3v-.18h39.93Zm0 3.98H65.3v-.18h39.93Zm0 3.98H65.3v-.17h39.93Zm0 3.99H65.3v-.18h39.93Zm0 3.98H65.3v-.18h39.93Zm1.1-31.42H64.2a1.9 1.9 0 0 0-1.9 1.9v30.98c0 1.05.85 1.9 1.9 1.9h42.13a1.9 1.9 0 0 0 1.9-1.9V95.5a1.9 1.9 0 0 0-1.9-1.9" />
    </g>
    <path fill="#918f90"
      d="M65.3 97.13h39.93v-.18H65.3Zm0 3.98h39.93v-.18H65.3Zm0 3.99h39.93v-.18H65.3Zm0 3.98h39.93v-.18H65.3Zm0 3.98h39.93v-.18H65.3Zm0 3.98h39.93v-.17H65.3Zm0 3.99h39.93v-.18H65.3Zm0 3.98h39.93v-.18H65.3Z" />
    <path fill="#e9e9e9"
      d="M88.62 67.76h8.54v17.16h-8.54ZM69.74 86.38c.34.25.76.4 1.22.4h29.34l.24-.02.06-.01a2.1 2.1 0 0 0 .42-.1l.04-.02.21-.1.1-.05c.23-.14.43-.31.6-.53l.01-.02a.8.8 0 0 0 .13-.19l.02-.03a2.02 2.02 0 0 0 .26-.72v-.07c.02-.09.02-.17.02-.26v-19.9H68.84v19.9c0 .71.36 1.34.9 1.72" />
    <g clip-path="url(#k)" opacity=".3">
      <path fill="url(#l)"
        d="M88.62 67.76h8.54v17.16h-8.54ZM69.74 86.38c.34.25.76.4 1.22.4h29.34l.24-.02.06-.01a2.1 2.1 0 0 0 .42-.1l.04-.02.21-.1.1-.05c.23-.14.43-.31.6-.53l.01-.02a.8.8 0 0 0 .13-.19l.02-.03a2.02 2.02 0 0 0 .26-.72v-.07c.02-.09.02-.17.02-.26v-19.9H68.84v19.9c0 .71.36 1.34.9 1.72" />
    </g>
  </g>
  <linearGradient id="a" x1="68.93" x2="68.93" y1="-203.5" y2="165.1" gradientUnits="userSpaceOnUse">
    <stop offset="0" stop-color="#fffa5f" />
    <stop offset="1" stop-color="#b53a00" />
  </linearGradient>
  <linearGradient id="b" x1="63.8" x2="74.28" y1="65.77" y2="146.78" gradientUnits="userSpaceOnUse">
    <stop offset="0" stop-color="#7b1500" />
    <stop offset=".01" stop-color="#7b1500" />
    <stop offset="1" stop-color="#c68526" />
  </linearGradient>
  <linearGradient id="c" x1="-82.95" x2="209.66" y1="-205.03" y2="329.62"
    gradientUnits="userSpaceOnUse">
    <stop offset="0" stop-color="#ff8b3f" />
    <stop offset="1" />
  </linearGradient>
  <linearGradient id="d" x1="52.67" x2="99.9" y1="16.26" y2="40.25" gradientUnits="userSpaceOnUse">
    <stop offset="0" stop-color="#e5e4e4" />
    <stop offset="1" stop-color="#7f7f7f" />
  </linearGradient>
  <linearGradient id="e" x1="70.19" x2="69.22" y1="-67.53" y2="117.73"
    gradientUnits="userSpaceOnUse">
    <stop offset="0" stop-color="#fff" />
    <stop offset="1" />
  </linearGradient>
  <linearGradient id="f" x1="68.96" x2="68.96" y1="33.83" y2="-18.77" gradientUnits="userSpaceOnUse">
    <stop offset="0" stop-color="#fff" />
    <stop offset="1" />
  </linearGradient>
  <radialGradient id="g" cx="69.11" cy="26.65" r="27.71" fx="69.11" fy="26.65"
    gradientUnits="userSpaceOnUse">
    <stop offset="0" stop-color="#e5e4e4" />
    <stop offset="1" stop-color="#7f7f7f" />
  </radialGradient>
</svg>
