<?xml version="1.0" encoding="UTF-8" standalone="no"?>
<svg xmlns="http://www.w3.org/2000/svg" xml:space="preserve" id="Layer_1" width="137.132" height="137.132" x="0" y="0" version="1.1" viewBox="0 0 137.132 137.13201">
  <title id="title21">clipboard2file</title>
  <defs id="defs21">
    <clipPath id="clipPath16" clipPathUnits="userSpaceOnUse">
      <path id="path18-3" d="M0 595.275h841.89V0H0Z"/>
    </clipPath>
    <clipPath id="clipPath138" clipPathUnits="userSpaceOnUse">
      <path id="path140" d="M290.118 321.389h260.888v-197.5H290.118Z"/>
    </clipPath>
    <clipPath id="clipPath188" clipPathUnits="userSpaceOnUse">
      <path id="path190" d="M327.29 485.137h190.669v-125H327.29Z"/>
    </clipPath>
    <linearGradient id="linearGradient146" x1="0" x2="1" y1="0" y2="0" gradientTransform="scale(328.55276 -328.55276) rotate(37.497799 1.87838723 .83915515)" gradientUnits="userSpaceOnUse" spreadMethod="pad">
      <stop id="stop148" offset="0" style="stop-opacity:1;stop-color:#fff"/>
      <stop id="stop150" offset="1" style="stop-opacity:1;stop-color:#231f20"/>
    </linearGradient>
    <linearGradient id="linearGradient196" x1="0" x2="1" y1="0" y2="0" gradientTransform="matrix(-163.99989 122.00018 122.00018 163.99989 519.92187 353.24805)" gradientUnits="userSpaceOnUse" spreadMethod="pad">
      <stop id="stop198" offset="0" style="stop-opacity:1;stop-color:#fff"/>
      <stop id="stop200" offset="1" style="stop-opacity:1;stop-color:#231f20"/>
    </linearGradient>
  </defs>
  <style id="style1" type="text/css">
    .st2{fill:#ffb600}.st12{fill:#eaeaea}
  </style>
  <path id="path1" d="M111.8 17.922902c11 0 10.1 11.3 10.1 18.9v33.7c0 18.1 1.8 37.099998 0 55.099998 0 11.4-12.1 10.1-19.9 10.1H32.9c-7.4 0-16.9-.1-16.9-10.4V75.222902c0-15.4-1.5-31.8 0-47.2 0-10.1 9.7-10.1 16.9-10.1h78.9" style="fill:#c68526"/>
  <linearGradient id="SVGID_1_" x1="-877.96143" x2="-876.0614" y1="-7.2210999" y2="-7.2210999" gradientTransform="matrix(0 194 -194 0 -1331.9653 170121.02)" gradientUnits="userSpaceOnUse">
    <stop id="stop1" offset="0" style="stop-color:#fffa5f"/>
    <stop id="stop2" offset="1" style="stop-color:#b53a00"/>
  </linearGradient>
  <path id="path2" d="M26.1 134.8229c-10.6 0-9.2-11.8-9.2-18.9V44.522902c0-5.8-1.1-12.8.2-18.6 2.2-9.1 13.9-7 20.9-7h68.7c7.2 0 14.2 1.3 14.2 10.4V112.8229c0 4.7.9 10.4-.2 15-1.9 8.1-10.3 7.1-16.6 7.1H74.5l-48.4-.1m85.7-117.799998H27.4c-8.9 0-12.4 6.3-12.4 14.2V124.0229c0 8.7 6 12.7 14 12.7h60.5c13 0 33.3 4.2 33.3-14.3V34.122902c.1-7.6-.7-17.1-11-17.1" style="fill:url(#SVGID_1_)"/>
  <path id="path3" d="M18.4 30.522902V117.5229c0 8.8 2.3 15.8 13 15.4-10.9 0-9.8-11.6-9.8-19V40.822902c0-7.6-1.5-20 9.8-20-6.3-.3-13 2.3-13 9.7" class="st2"/>
  <path id="path4" d="M109.6 19.622902h-77c-8.6 0-14.7 3.1-14.3 13 0-10.5 10.6-9.8 17.9-9.8h64.4c7.4 0 18.9-1.1 18.9 9.8.2-6.3-2.4-13-9.9-13" class="st2"/>
  <path id="path5" d="M119.5 123.1229V36.122902c0-8.8-2.3-15.8-13-15.4 10.9 0 9.8 11.6 9.8 19V112.8229c0 7.6 1.5 20-9.8 20 6.3.3 13-2.2 13-9.7" class="st2"/>
  <linearGradient id="SVGID_2_" x1="-872.23242" x2="-870.33228" y1="7.3228998" y2="7.3228998" gradientTransform="matrix(5.5178 42.638 -42.638 5.5178 5188.8379 37215.605)" gradientUnits="userSpaceOnUse">
    <stop id="stop5" offset="0" style="stop-color:#7b1500"/>
    <stop id="stop6" offset=".0056" style="stop-color:#7b1500"/>
    <stop id="stop7" offset="1" style="stop-color:#c68526"/>
  </linearGradient>
  <path id="path7" d="M69.8 72.922902c-24.1 0-35.8 22.4-42 42.999998-2.3 7.6-3 10.6 5.7 12.9 17.4 4.6 36.9 4.3 54.6 2.9 4.4-.3 27.3-.8 27.4-8 .1-5.5-.3-11.1-1.5-16.5-4.8-21.999998-21.9-34.299998-44.2-34.299998" style="fill:url(#SVGID_2_)"/>
  <path id="path8" d="M110.9 74.622902c0-9.2.6-18.5 1.4-27.7.4-4.7 2.5-11.9.6-16.5-2.8-6.8-17.1-4.4-22.8-4.4H52.5c-6.6 0-20.5-2.2-24.7 4.5-2.2 3.5-.2 9.8.1 13.5.9 11.3 1.4 22.6 1.1 33.9-.2 9.9-.9 19.8-1.8 29.699998-.5 5.7-2.2 11.9 3.6 15.6 6.8 4.3 20.7 2.6 28.3 3.1l17.2 1.2c2.5.2 5.9 1 8.4.2 9.7-3 20.7-12.9 26.8-20.8 2.1-2.7 1.7-3.9 1.2-7.099998-1.3-8.3-1.8-16.8-1.8-25.2" style="fill:#fff"/>
  <linearGradient id="SVGID_3_" x1="-879.862" x2="-877.95203" y1="-8.3844004" y2="-8.3844004" gradientTransform="matrix(153.2 279.93 -279.93 153.2 132364.86 247379.22)" gradientUnits="userSpaceOnUse">
    <stop id="stop8" offset="0" style="stop-color:#ff8b3f"/>
    <stop id="stop9" offset="1" style="stop-color:#000"/>
  </linearGradient>
  <path id="path9" d="M83.5 128.7229c4.3 0 9.4-4.6 12.6-6.9 5.6-4 11.3-8.6 15.6-14 2.7-3.3 2.4-4.8 1.8-8.699998-1.5-9.6-2-19.3-1.7-29 .2-9 .8-18 1.6-26.9.4-4.8 2.5-12.1-1.7-15.8-5-4.5-18.4-2.3-24.4-2.3H49.9c-7.2 0-23.9-2.2-23.9 8.8 2.2 16.3 2.6 33 2 49.4-.3 9.1-1 18.199998-1.9 27.299998-.6 6.5.2 13.2 8.1 14.8 15.8 3 33.2 2.2 49.3 3.3M38 26.722902h59.2c8 0 16.1-.4 15.1 10.2-1.8 18.6-3.3 37.4-1.3 55.9.3 2.8 2.6 8.799998 1.3 11.599998-2.5 5.2-8.5 9.5-12.9 13.1-7.9 6.4-13 9.9-22.9 9.3l-35.1-2.4c-3.5-.2-7.7 0-10.6-2.2-5.2-3.9-2.9-11-2.5-16.5 1.6-17.599998 2.1-35.299998 1.1-52.899998-.6-9.5-6.3-26.1 8.6-26.1" style="fill:url(#SVGID_3_)"/>
  <path id="path10" d="M105 74.122902c0-8.9.6-17.9 1.3-26.8.3-4 2.3-10.9-.6-14.4-4.2-4.9-19.7-2.3-25.1-2.3H47.3c-3.3 0-6.8-.3-9.9 1.3-5.6 2.9-3.3 9.7-2.9 14.6 1.6 20 1.1 40.1-.6 59.999998-1.1 13.1 9.9 12.4 19.8 13.1 4.2.3 24.2 4.7 25.2-.5 1.1-6.1.7-12.9 3.9-18.4 3.9-6.799998 18.8-3.299998 24.4-1.099998-1.8-8.3-2.2-17-2.2-25.5" style="fill:#f4f2f2"/>
  <path id="path11" d="M82.2 127.3229c12.4-1.2 23.8-14.1 31.3-22.8-7-2.4-19.2-6.699998-26.1-2.3-6 3.8-4.9 18.9-5.2 25.1" style="fill:#bfbfbf"/>
  <path id="path12" d="M77.8 121.5229c.1-6.6.1-16.7 5-21.699998 5.2-5.3 18.1-1.7 24.3-.2-7-1.7-22-6.5-28.5-1.9-5.8 4.299998-2.2 18.099998-.8 23.799998" style="fill:#cfcfcf"/>
  <linearGradient id="SVGID_4_" x1="37.668098" x2="84.897102" y1="123.7593" y2="99.777298" gradientTransform="matrix(1 0 0 -1 15 140.0233)" gradientUnits="userSpaceOnUse">
    <stop id="stop12" offset="0" style="stop-color:#e5e4e4"/>
    <stop id="stop13" offset="1" style="stop-color:#7f7f7f"/>
  </linearGradient>
  <path id="path13" d="M91.1 18.422902c-1.8-.9-4.3-.8-6.3-1.3-4.1-1.2-3.3-3.7-4.1-7.2999996-1.7-7.6-10.8-10.8-17.7-7.7-6.8 3.1-3.4 12.5999996-8.9 14.6999996-6.9 2.7-14.7 5.5-16.1 14-1 6 7.5 5.1 11.4 5.1 10.6 0 21.2-.5 31.9-.2 5.3.2 14.7 2 19.5-1.1 6.4-4.2-6.7-14.7-9.7-16.2m-22.1-4.7c-5.8 0-5.8-8.3999996 0-8.3999996s5.8 8.3999996 0 8.3999996" style="fill:url(#SVGID_4_)"/>
  <linearGradient id="SVGID_5_" x1="-875.76648" x2="-873.82648" y1="-3.3006001" y2="-3.3006001" gradientTransform="matrix(-.5 95.498 -95.498 -.5 -682.8904 83564.765)" gradientUnits="userSpaceOnUse">
    <stop id="stop14" offset="0" style="stop-color:#fff"/>
    <stop id="stop15" offset="1" style="stop-color:#000"/>
  </linearGradient>
  <path id="path15" d="M59.7 3.2229024c-2.9 2.8-3.8 6.9999996-3.8 10.8999996 0 2.1-5.6 2.8-7.1 3.3-4.4 1.4-18.3 15-9.1 18.4 10.1 3.7 24.4.5 35.3.7 7.3.1 14.9 1 22.1.1 10.5-1.3 4.2-12.3-1.2-16.4-3.4-2.6-5.7-3-9.7-3.9-5.6-1.2-3.5-5.9-5.7-10.0999996-3.6-6.9-15.3-8.3-20.8-3M39.2 33.422902c-5-4.8 9.3-13.6 12.1-14.8 4.7-1.2 6.1-2.1 6.7-6.9.5-3.9999996 2.4-7.7999996 6.4-9.0999996 7.3-2.4 14.8 1.3 15.7 9.0999996 1 8.2 11.4 6.5 16.8 11.9 1.5 1.5 6.2 7.6 3.8 9.9-2.1 2-7.2 1.5-9.8 1.5-6.2 0-12.4-.3-18.6-.4-4-.1-8.1.1-12.1.1-5.1.1-17 2.5-21-1.3" style="fill:url(#SVGID_5_)"/>
  <linearGradient id="SVGID_6_" x1="-893.1839" x2="-891.33392" y1="-37.138" y2="-37.138" gradientTransform="matrix(0 -28.432 28.432 0 1124.8673 -25361.172)" gradientUnits="userSpaceOnUse">
    <stop id="stop16" offset="0" style="stop-color:#fff"/>
    <stop id="stop17" offset="1" style="stop-color:#000"/>
  </linearGradient>
  <path id="path17" d="M63.5 9.5229024c0 6.6999996 11 6.6999996 11 0 0-6.7-11-6.7-11 0m1.9 0c0-4.2 7.2-4.2 7.2 0 0 4.1999996-7.2 4.1999996-7.2 0" style="fill:url(#SVGID_6_)"/>
  <path id="path18" d="M74 7.2229024c0-3.7-10.3-3-10.3.2 0-4.4 10.3-5.1 10.3-.2" class="st12"/>
  <path id="path19" d="M98.7 34.022902c0 .7-55.4.7-55.4 0s55.4-.8 55.4 0" class="st12"/>
  <radialGradient id="SVGID_7_" cx="54.105999" cy="113.3692" r="27.712999" gradientTransform="matrix(1 0 0 -1 15 140.0233)" gradientUnits="userSpaceOnUse">
    <stop id="stop19" offset="0" style="stop-color:#e5e4e4"/>
    <stop id="stop20" offset="1" style="stop-color:#7f7f7f"/>
  </radialGradient>
  <path id="path20" d="M98.7 30.422902c0 .7-56.8.7-56.8 0 0-6.7 18.9-9.7 22.7-10 8.5-.7 17.1.4 24.9 4 1.3.6 9.2 4.1 9.2 6" style="fill:url(#SVGID_7_)"/>
  <path id="path21" d="M93.3 25.022902c0-3.7-18.6-5.6-20.5-5.6-2.1-.1-26.3.9-26.3 5 0-4.8 21.1-6.2 23.5-6.2 2.6 0 23.3 1.8 23.3 6.8" style="fill:#f7f7f7"/>
  <g id="g14" clip-path="url(#clipPath16)" transform="matrix(.17606229 0 0 -.17606229 11.22076 150.17847)">
    <g id="g20" transform="translate(510.2793 360.9512)">
      <path id="path22" d="M0 0c-.07-.027-.141-.051-.211-.077.07.026.141.05.211.077" style="fill:#302c2d;fill-opacity:1;fill-rule:nonzero;stroke:none"/>
    </g>
    <g id="g24" transform="translate(509.0234 360.5469)">
      <path id="path26" d="M0 0c-.107-.028-.213-.058-.322-.083.109.026.215.054.322.083" style="fill:#302c2d;fill-opacity:1;fill-rule:nonzero;stroke:none"/>
    </g>
    <g id="g28" transform="translate(507.6836 360.2749)">
      <path id="path30" d="M0 0c-.115-.017-.23-.04-.35-.054.12.014.233.037.35.054" style="fill:#302c2d;fill-opacity:1;fill-rule:nonzero;stroke:none"/>
    </g>
    <g id="g32" transform="translate(290.8457 362.3447)">
      <path id="path34" d="M0 0h41.523c-3.069 2.173-5.079 5.745-5.079 9.792v113H25.668V120.4H-5.068l-5.629-6h-2.201L-13 11C-13 4.373-6.627 0 0 0" style="fill:#302c2d;fill-opacity:1;fill-rule:nonzero;stroke:none"/>
    </g>
    <g id="g36" transform="translate(509.0762 360.3252)">
      <path id="path38" d="M0 0c-.156-.036-.313-.07-.473-.1.16.029.317.064.473.1" style="fill:#302c2d;fill-opacity:1;fill-rule:nonzero;stroke:none"/>
    </g>
    <g id="g40" transform="translate(507.7773 360.0986)">
      <path id="path42" d="M0 0c-.105-.012-.211-.023-.316-.033.105.01.211.021.316.033" style="fill:#302c2d;fill-opacity:1;fill-rule:nonzero;stroke:none"/>
    </g>
    <g id="g44" transform="translate(512.0234 361.7939)">
      <path id="path46" d="M0 0c-.184-.107-.367-.212-.555-.31.002.001.004.002.008.003.328.049.654.108.975.182.633.373 1.23.799 1.783 1.278-.336-.29-.684-.566-1.049-.818C.783.204.395.093 0 0" style="fill:#302c2d;fill-opacity:1;fill-rule:nonzero;stroke:none"/>
    </g>
    <g id="g48" transform="translate(516.248 365.9849)">
      <path id="path50" d="M0 0c.035.06.074.118.107.178C.074.118.035.06 0 0" style="fill:#302c2d;fill-opacity:1;fill-rule:nonzero;stroke:none"/>
    </g>
    <g id="g52" transform="translate(517.4844 368.8198)">
      <path id="path54" d="M0 0c.033.12.063.242.092.363C.063.242.033.12 0 0" style="fill:#302c2d;fill-opacity:1;fill-rule:nonzero;stroke:none"/>
    </g>
    <g id="g56" transform="translate(517.7969 370.2568)">
      <path id="path58" d="M0 0c.021.137.045.271.063.41C.045.271.021.136 0 0" style="fill:#302c2d;fill-opacity:1;fill-rule:nonzero;stroke:none"/>
    </g>
    <g id="g60" transform="translate(518.2363 370.2017)">
      <path id="path62" d="M0 0c-.049-.318-.107-.634-.18-.944.073.31.131.625.18.944" style="fill:#302c2d;fill-opacity:1;fill-rule:nonzero;stroke:none"/>
    </g>
    <g id="g64" transform="translate(510.2402 360.6558)">
      <path id="path66" d="M0 0c-.176-.061-.355-.117-.537-.169.182.052.359.109.537.169" style="fill:#302c2d;fill-opacity:1;fill-rule:nonzero;stroke:none"/>
    </g>
    <g id="g68" transform="translate(516.1055 364.9922)">
      <path id="path70" d="M0 0c-.219-.302-.449-.594-.695-.873.246.28.476.571.695.873" style="fill:#302c2d;fill-opacity:1;fill-rule:nonzero;stroke:none"/>
    </g>
    <g id="g72" transform="translate(516.9609 366.3408)">
      <path id="path74" d="M0 0c-.217-.404-.459-.792-.719-1.167.26.375.502.763.719 1.167" style="fill:#302c2d;fill-opacity:1;fill-rule:nonzero;stroke:none"/>
    </g>
    <g id="g76" transform="translate(518.3867 372.0117)">
      <path id="path78" d="M0 0c0-.471-.035-.934-.088-1.391C-.035-.934 0-.471 0 0" style="fill:#302c2d;fill-opacity:1;fill-rule:nonzero;stroke:none"/>
    </g>
    <g id="g80" transform="translate(517.9434 368.8154)">
      <path id="path82" d="M0 0c-.086-.31-.186-.613-.295-.912.109.299.209.602.295.912" style="fill:#302c2d;fill-opacity:1;fill-rule:nonzero;stroke:none"/>
    </g>
    <g id="g84" transform="translate(517.5156 367.5376)">
      <path id="path86" d="M0 0c-.162-.401-.34-.794-.543-1.173C-.34-.794-.162-.402 0 0" style="fill:#302c2d;fill-opacity:1;fill-rule:nonzero;stroke:none"/>
    </g>
    <g id="g88" transform="translate(515.4258 364.7817)">
      <path id="path90" d="M0 0c.027.036.055.072.082.108C.055.072.027.035 0 0" style="fill:#302c2d;fill-opacity:1;fill-rule:nonzero;stroke:none"/>
    </g>
    <g id="g92" transform="translate(511.752 361.2896)">
      <path id="path94" d="M0 0c-.391-.197-.797-.37-1.211-.524C-.797-.371-.393-.197 0 0" style="fill:#302c2d;fill-opacity:1;fill-rule:nonzero;stroke:none"/>
    </g>
    <g id="g96" transform="translate(515.1992 363.8857)">
      <path id="path98" d="M0 0c-.244-.264-.5-.518-.768-.759C-.5-.517-.244-.265 0 0" style="fill:#302c2d;fill-opacity:1;fill-rule:nonzero;stroke:none"/>
    </g>
    <g id="g100" transform="translate(512.4492 361.668)">
      <path id="path102" d="M0 0c-.221-.129-.445-.252-.676-.368.231.116.455.238.676.368" style="fill:#302c2d;fill-opacity:1;fill-rule:nonzero;stroke:none"/>
    </g>
    <g id="g104" transform="translate(275.5127 372.0117)">
      <path id="path106" d="M0 0c0-6.627 5.373-12 12-12h218.874c.361 0 .719.023 1.074.054.106.01.211.021.317.033.279.032.554.075.826.126.16.03.316.064.472.1.211.049.42.103.627.162.182.052.362.108.538.169.101.034.201.073.3.11.414.154.821.327 1.211.524.008.003.016.007.022.01.23.116.455.239.676.368 0 0 0 .001.001.001-.32-.074-.646-.133-.974-.181l-.008-.004c-.385-.2-.783-.375-1.189-.533-.071-.026-.141-.05-.211-.076-.342-.125-.69-.234-1.045-.328-.108-.029-.213-.057-.323-.083-.334-.078-.671-.139-1.017-.189-.117-.017-.231-.04-.35-.054-.451-.051-.91-.084-1.375-.084H63.777c-2.58 0-4.964.822-6.921 2.208H15.333c-6.627 0-13 4.373-13 11l.102 103.4H.103Z" style="fill:#272324;fill-opacity:1;fill-rule:nonzero;stroke:none"/>
    </g>
    <g id="g108" transform="translate(517.8594 370.6665)">
      <path id="path110" d="M0 0c-.018-.138-.041-.273-.063-.41-.056-.364-.13-.721-.22-1.074-.03-.121-.059-.243-.092-.363-.27-.938-.65-1.827-1.129-2.656-.033-.06-.072-.119-.107-.179-.229-.379-.475-.744-.741-1.095-.027-.036-.054-.072-.082-.108-.933-1.199-2.086-2.214-3.402-2.988.395.093.783.205 1.162.335.365.252.713.528 1.049.818.066.058.131.12.197.18.268.242.524.495.768.759.07.078.142.155.211.234.246.279.476.571.695.873.045.061.092.12.137.182.26.374.502.763.719 1.166.005.008.007.016.011.024.203.379.381.772.543 1.173.049.12.09.244.133.366.109.299.209.602.295.912.039.146.078.294.113.442.073.31.131.626.18.944.019.14.047.278.062.419.053.457.088.92.088 1.391L.131 105.941.1 114.47v-113C.1.971.059.483 0 0" style="fill:#272324;fill-opacity:1;fill-rule:nonzero;stroke:none"/>
    </g>
    <path id="path112" d="M591.297 139.281h-18v14.664h18zm-323.38 0h-18v14.666h18zm-9.552 321.84 7.774-18.362-3.598.737v-10.722h-8.35v10.722l-3.597-.737zm315.104 24.016h-14.301v-2.53h-30.736l-5.629-6h-4.813l.397-104.595c0-.471-.035-.934-.088-1.391-.016-.142-.043-.28-.063-.419-.048-.319-.107-.634-.179-.944-.036-.149-.075-.296-.114-.443-.086-.309-.185-.613-.295-.912-.043-.122-.084-.245-.132-.365-.162-.402-.34-.795-.543-1.174-.004-.007-.006-.015-.012-.023-.217-.404-.459-.792-.719-1.167-.045-.062-.092-.12-.137-.182-.218-.302-.449-.593-.695-.873-.068-.079-.14-.156-.211-.233-.244-.265-.5-.517-.767-.759-.067-.06-.131-.122-.198-.18-.552-.479-1.15-.905-1.783-1.278l-.002-.001c-.22-.13-.445-.252-.676-.368-.005-.004-.013-.007-.021-.01-.393-.197-.797-.371-1.211-.524-.1-.037-.199-.076-.301-.11-.177-.06-.355-.117-.537-.17-.207-.059-.416-.112-.627-.161-.156-.036-.312-.071-.472-.1-.272-.051-.547-.094-.827-.126-.105-.013-.211-.024-.316-.033-.356-.031-.713-.054-1.074-.054H287.513c-6.627 0-12 5.373-12 12l.102 104.733h.447l.007 8.392h-22.125c-6.627 0-12-5.373-12-12V122.139c0-6.627 5.373-12 12-12h21.68v213c0 6.627 5.371 12 12 12H553.5c6.627 0 12-5.373 12-12v-213h22.445c6.627 0 12 5.373 12 12v335.089z" style="fill:#393536;fill-opacity:1;fill-rule:nonzero;stroke:none"/>
    <g id="g114" transform="translate(582.2969 139.8008)">
      <path id="path116" d="M0 0c.074 0 .148.009.223.012-3.659.118-6.59 3.116-6.59 6.802 0 3.687 2.931 6.681 6.59 6.799-.075.003-.149.012-.223.012-3.762 0-6.813-3.049-6.813-6.811C-6.813 3.053-3.762 0 0 0" style="fill:#a7a5a6;fill-opacity:1;fill-rule:nonzero;stroke:none"/>
    </g>
    <path id="path118" d="M488.125 468.137h-48.502v-97.5h48.502z" style="fill:#302c2d;fill-opacity:1;fill-rule:nonzero;stroke:none"/>
    <g id="g120" transform="translate(551.0059 134.6895)">
      <path id="path122" d="M0 0c0-5.965-4.834-10.801-10.801-10.801h-239.287c-5.965 0-10.8 4.836-10.8 10.801v175.9c0 5.963 4.834 10.799 10.8 10.799h239.287C-4.836 186.699 0 181.863 0 175.9Zm2.494 200.449h-265.876c-6.629 0-12-5.373-12-12v-213H14.494v213c0 6.627-5.373 12-12 12" style="fill:#302c2d;fill-opacity:1;fill-rule:nonzero;stroke:none"/>
    </g>
    <g id="g124" transform="translate(582.2969 153.4258)">
      <path id="path126" d="M0 0c.074 0 .148-.009.223-.012 3.658-.118 6.59-3.112 6.59-6.799 0-3.686-2.932-6.684-6.59-6.802-.075-.003-.149-.012-.223-.012-3.762 0-6.813 3.053-6.813 6.814C-6.813-3.049-3.762 0 0 0m-9-14.145H9V.519H-9Z" style="fill:#302c2d;fill-opacity:1;fill-rule:nonzero;stroke:none"/>
    </g>
    <g id="g128" transform="translate(254.1914 432.7744)">
      <path id="path130" d="M0 0h8.35v10.722l3.597-.738-7.773 18.363-7.772-18.363L0 10.722Z" style="fill:#302c2d;fill-opacity:1;fill-rule:nonzero;stroke:none"/>
    </g>
    <path id="path132" d="M533.949 301.326H307.175v1h226.774zm0-22.625H307.175v1h226.774zm0-22.625H307.175v1h226.774zm0-22.625H307.175v1h226.774zm0-22.625H307.175v1h226.774zm0-22.625H307.175v1h226.774zm0-22.625H307.175v1h226.774zm0-22.625H307.175v1h226.774zm6.256 178.438H300.918c-5.966 0-10.8-4.836-10.8-10.799V134.689c0-5.964 4.835-10.8 10.8-10.8h239.287c5.967 0 10.801 4.836 10.801 10.8V310.59c0 5.963-4.836 10.799-10.801 10.799" style="fill:#f4f4f4;fill-opacity:1;fill-rule:nonzero;stroke:none"/>
    <g id="g134">
      <g id="g152">
        <g id="g154" clip-path="url(#clipPath138)" style="opacity:.149994">
          <g id="g156">
            <g id="g158">
              <g id="g160">
                <g id="g162">
                  <path id="path164" d="M533.949 301.326H307.175v1h226.774zm0-22.625H307.175v1h226.774zm0-22.625H307.175v1h226.774zm0-22.625H307.175v1h226.774zm0-22.625H307.175v1h226.774zm0-22.625H307.175v1h226.774zm0-22.625H307.175v1h226.774zm0-22.625H307.175v1h226.774zm6.256 178.438H300.918c-5.966 0-10.8-4.836-10.8-10.799V134.689c0-5.964 4.835-10.8 10.8-10.8h239.287c5.967 0 10.801 4.836 10.801 10.8V310.59c0 5.963-4.836 10.799-10.801 10.799" style="fill:url(#linearGradient146);stroke:none"/>
                </g>
              </g>
            </g>
          </g>
        </g>
      </g>
    </g>
    <path id="path166" d="M307.175 301.326h226.774v1H307.175Z" style="fill:#918f90;fill-opacity:1;fill-rule:nonzero;stroke:none"/>
    <path id="path168" d="M307.175 278.701h226.774v1H307.175Z" style="fill:#918f90;fill-opacity:1;fill-rule:nonzero;stroke:none"/>
    <path id="path170" d="M307.175 256.076h226.774v1H307.175Z" style="fill:#918f90;fill-opacity:1;fill-rule:nonzero;stroke:none"/>
    <path id="path172" d="M307.175 233.451h226.774v1H307.175Z" style="fill:#918f90;fill-opacity:1;fill-rule:nonzero;stroke:none"/>
    <path id="path174" d="M307.175 210.826h226.774v1H307.175Z" style="fill:#918f90;fill-opacity:1;fill-rule:nonzero;stroke:none"/>
    <path id="path176" d="M307.175 188.201h226.774v1H307.175Z" style="fill:#918f90;fill-opacity:1;fill-rule:nonzero;stroke:none"/>
    <path id="path178" d="M307.175 165.576h226.774v1H307.175Z" style="fill:#918f90;fill-opacity:1;fill-rule:nonzero;stroke:none"/>
    <path id="path180" d="M307.175 142.951h226.774v1H307.175Z" style="fill:#918f90;fill-opacity:1;fill-rule:nonzero;stroke:none"/>
    <path id="path182" d="M439.623 468.137h48.502v-97.5h-48.502ZM332.369 362.345c1.957-1.386 4.341-2.208 6.921-2.208h166.669c.465 0 .924.033 1.375.084.119.014.234.037.35.054.345.05.683.111 1.017.189.11.025.215.055.322.083.356.094.704.203 1.045.328.071.025.141.049.211.076.407.158.805.333 1.19.533.187.098.371.203.554.31 1.317.774 2.469 1.788 3.403 2.988.027.035.054.072.082.108.265.35.512.715.74 1.095.035.06.074.118.107.178.479.829.86 1.718 1.129 2.657.034.119.063.242.092.363.09.352.164.71.221 1.074.021.136.045.271.062.41.059.482.1.971.1 1.47v113H327.29v-113c0-4.048 2.01-7.619 5.079-9.792" style="fill:#e9e9e9;fill-opacity:1;fill-rule:nonzero;stroke:none"/>
    <g id="g184">
      <g id="g202">
        <g id="g204" clip-path="url(#clipPath188)" style="opacity:.300003">
          <g id="g206">
            <g id="g208">
              <g id="g210">
                <g id="g212">
                  <path id="path214" d="M439.623 468.137h48.502v-97.5h-48.502ZM332.369 362.345c1.957-1.386 4.341-2.208 6.921-2.208h166.669c.465 0 .924.033 1.375.084.119.014.234.037.35.054.345.05.683.111 1.017.189.11.025.215.055.322.083.356.094.704.203 1.045.328.071.025.141.049.211.076.407.158.805.333 1.19.533.187.098.371.203.554.31 1.317.774 2.469 1.788 3.403 2.988.027.035.054.072.082.108.265.35.512.715.74 1.095.035.06.074.118.107.178.479.829.86 1.718 1.129 2.657.034.119.063.242.092.363.09.352.164.71.221 1.074.021.136.045.271.062.41.059.482.1.971.1 1.47v113H327.29v-113c0-4.048 2.01-7.619 5.079-9.792" style="fill:url(#linearGradient196);stroke:none"/>
                </g>
              </g>
            </g>
          </g>
        </g>
      </g>
    </g>
  </g>
</svg>
